<svg xmlns="http://www.w3.org/2000/svg" width="61.667" height="54" viewBox="0 0 61.667 54">
  <g id="Group_363" data-name="Group 363" transform="translate(0 54)">
    <path id="Path_595" data-name="Path 595" d="M61.667-27A23.678,23.678,0,0,0,38-50.667H28.333A23.678,23.678,0,0,0,4.667-27,23.678,23.678,0,0,0,28.333-3.333H38A23.678,23.678,0,0,0,61.667-27Z" fill="#fbc74b" fill-rule="evenodd"/>
    <path id="Path_596" data-name="Path 596" d="M28.333-1.333,27,0A27.013,27.013,0,0,1,0-27,27.013,27.013,0,0,1,27-54l1.333,1.333A25.679,25.679,0,0,0,2.667-27,25.679,25.679,0,0,0,28.333-1.333Z" fill="#fbc74b" fill-rule="evenodd"/>
  </g>
</svg>
