<svg xmlns="http://www.w3.org/2000/svg" width="19.333" height="19.324" viewBox="0 0 19.333 19.324">
  <path id="Path_627" data-name="Path 627" d="M1.136-44.759A8.9,8.9,0,0,1,3.82-51.033a8.825,8.825,0,0,1,6.274-2.534,8.807,8.807,0,0,1,6.206,2.6A8.808,8.808,0,0,1,18.9-44.759a8.817,8.817,0,0,1-2.216,5.927,8.9,8.9,0,0,1-5.644,2.964l-1.382.056a.318.318,0,0,0-.332.3.318.318,0,0,0,.3.332l1.482-.026a9.616,9.616,0,0,0,6.178-3.085,9.663,9.663,0,0,0,2.54-6.471A9.68,9.68,0,0,0,17-51.668,9.681,9.681,0,0,0,10.094-54.5a9.667,9.667,0,0,0-6.841,2.9A9.591,9.591,0,0,0,.5-44.759a.318.318,0,0,0,.318.318A.318.318,0,0,0,1.136-44.759Z" transform="translate(-0.5 54.501)" fill="#d1d1d2" fill-rule="evenodd"/>
</svg>
