<svg xmlns="http://www.w3.org/2000/svg" width="340" height="136.806" viewBox="0 0 340 136.806">
  <g id="Group_390" data-name="Group 390" transform="translate(-516 -162)">
    <path id="Path_713" data-name="Path 713" d="M0-68.44V-89.306a47.522,47.522,0,0,1,47.5-47.5h245a47.522,47.522,0,0,1,47.5,47.5V0a26.077,26.077,0,0,1-16.378-9.646,26.324,26.324,0,0,1-4.808-22.838c1.077-4.131,2.142-7.956,3.054-11.225,6.2-22.236-32.868-31.1-19.305,6.892S267,2.527,261.667-30.14s-52-56.667-140-27.333C66.649-39.134,24.139-54.41,0-68.44Z" transform="translate(516 298.806)" fill="#fbc74b" fill-rule="evenodd"/>
    <path id="Path_557" data-name="Path 557" d="M384.342-356.325h-4.653a13.588,13.588,0,0,1-4,9.653,13.6,13.6,0,0,1-9.656,4,13.606,13.606,0,0,1-9.656-4,13.6,13.6,0,0,1-4-9.653,13.606,13.606,0,0,1,4-9.658,13.6,13.6,0,0,1,9.656-4,13.609,13.609,0,0,1,9.656,4,13.6,13.6,0,0,1,4,9.658h4.653a18.308,18.308,0,0,0-18.307-18.31,18.312,18.312,0,0,0-18.31,18.31,18.313,18.313,0,0,0,18.31,18.307A18.309,18.309,0,0,0,384.342-356.325Z" transform="translate(452.806 550.029)" fill="#fdffff" opacity="0.11"/>
    <g id="Group_376" data-name="Group 376" transform="translate(1091.803 383.003) rotate(-177)" opacity="0.49">
      <path id="Path_552" data-name="Path 552" d="M362.9-367.048H360.97a5.63,5.63,0,0,1-1.657,4,5.636,5.636,0,0,1-4,1.658,5.638,5.638,0,0,1-4-1.658,5.635,5.635,0,0,1-1.658-4,5.638,5.638,0,0,1,1.658-4,5.637,5.637,0,0,1,4-1.657,5.639,5.639,0,0,1,4,1.657,5.633,5.633,0,0,1,1.657,4H362.9a7.586,7.586,0,0,0-7.586-7.587,7.588,7.588,0,0,0-7.587,7.587,7.588,7.588,0,0,0,7.587,7.586A7.587,7.587,0,0,0,362.9-367.048Z" transform="translate(207.159 512.27)" fill="#fdffff"/>
      <path id="Path_556" data-name="Path 556" d="M85.292-346.731a5.619,5.619,0,0,1-5.619,5.618,5.618,5.618,0,0,1-5.618-5.618,5.618,5.618,0,0,1,5.618-5.618A5.619,5.619,0,0,1,85.292-346.731Z" transform="translate(460.801 479.575)" fill="#fdffff"/>
    </g>
    <g id="Group_375" data-name="Group 375" transform="translate(19 74.194)" opacity="0.37">
      <path id="Path_554" data-name="Path 554" d="M5.633-8.42A2.816,2.816,0,0,1,2.817-5.6,2.816,2.816,0,0,1,0-8.42a2.817,2.817,0,0,1,2.817-2.816A2.816,2.816,0,0,1,5.633-8.42Z" transform="translate(769.763 141)" fill="#fdffff"/>
      <path id="Path_712" data-name="Path 712" d="M11.251-5.611A5.624,5.624,0,0,1,5.626.014,5.625,5.625,0,0,1,0-5.611a5.626,5.626,0,0,1,5.626-5.625A5.626,5.626,0,0,1,11.251-5.611Z" transform="translate(775.763 150)" fill="#fdffff"/>
    </g>
    <g id="Group_377" data-name="Group 377" transform="translate(752.866 -256.506) rotate(99)" opacity="0.28">
      <path id="Path_552-2" data-name="Path 552" d="M355.693-370.651H354.68a2.957,2.957,0,0,1-.87,2.1,2.959,2.959,0,0,1-2.1.871,2.96,2.96,0,0,1-2.1-.871,2.959,2.959,0,0,1-.871-2.1,2.961,2.961,0,0,1,.871-2.1,2.96,2.96,0,0,1,2.1-.87,2.961,2.961,0,0,1,2.1.87,2.958,2.958,0,0,1,.87,2.1h1.012a3.984,3.984,0,0,0-3.984-3.984,3.985,3.985,0,0,0-3.984,3.984,3.985,3.985,0,0,0,3.984,3.984A3.984,3.984,0,0,0,355.693-370.651Z" transform="translate(194.807 510.621)" fill="#fbc74b"/>
      <path id="Path_556-2" data-name="Path 556" d="M79.956-349.4a2.951,2.951,0,0,1-2.951,2.95,2.95,2.95,0,0,1-2.95-2.95,2.95,2.95,0,0,1,2.95-2.95A2.95,2.95,0,0,1,79.956-349.4Z" transform="translate(458.751 478.681)" fill="#fbc74b"/>
    </g>
    <g id="Group_380" data-name="Group 380" transform="translate(22.705 337.468) rotate(-30)" opacity="0.28">
      <path id="Path_552-3" data-name="Path 552" d="M355.693-370.651H354.68a2.957,2.957,0,0,1-.87,2.1,2.959,2.959,0,0,1-2.1.871,2.96,2.96,0,0,1-2.1-.871,2.959,2.959,0,0,1-.871-2.1,2.961,2.961,0,0,1,.871-2.1,2.96,2.96,0,0,1,2.1-.87,2.961,2.961,0,0,1,2.1.87,2.958,2.958,0,0,1,.87,2.1h1.012a3.984,3.984,0,0,0-3.984-3.984,3.985,3.985,0,0,0-3.984,3.984,3.985,3.985,0,0,0,3.984,3.984A3.984,3.984,0,0,0,355.693-370.651Z" transform="translate(194.79 512.84)" fill="#fff"/>
      <path id="Path_556-3" data-name="Path 556" d="M79.956-349.4a2.951,2.951,0,0,1-2.951,2.95,2.95,2.95,0,0,1-2.95-2.95,2.95,2.95,0,0,1,2.95-2.95A2.95,2.95,0,0,1,79.956-349.4Z" transform="translate(458.751 478.681)" fill="#fff"/>
    </g>
    <g id="Group_381" data-name="Group 381" transform="translate(616 241.956)">
      <path id="Path_714" data-name="Path 714" d="M.023,0,0-.867c0-38.955,32.058-71.01,71.014-71.014,36.476,0,66.9,28.113,70.616,63.676a71.475,71.475,0,0,0-19.917-7.918,52.369,52.369,0,0,0-13.255-22.2,52.8,52.8,0,0,0-37.449-15.51A52.78,52.78,0,0,0,33.56-38.325,52.448,52.448,0,0,0,18.212-4.385,162.409,162.409,0,0,1,.023,0Z" fill="rgba(253,255,255,0.1)" fill-rule="evenodd"/>
    </g>
  </g>
</svg>
